<svg width="59" height="60" viewBox="0 0 59 60" fill="none" xmlns="http://www.w3.org/2000/svg">
<path fill-rule="evenodd" clip-rule="evenodd" d="M23.1079 0.825748C18.0309 2.25175 14.4382 3.42176 8.6062 8.82576C1.1052 15.7778 -0.413166 19 0.0863241 43.5C0.0857166 60.5 0.476944 59.1948 1.10794 59.8258C1.78594 60.5038 3.68545 60.4308 7.10545 58.3258C9.90245 56.6048 13.0303 54.3257 13.5123 54.3257C13.9933 54.3257 16.2099 55.7378 18.6079 56.8258C27.8409 61.0158 40.814 58.7838 49.108 51.3258C64.22 37.7397 60.665 12.0967 42.608 3.32575C36.214 0.220743 29.3719 -0.934253 23.1079 0.825748ZM37.3964 12.2288C46.8414 17.0728 50.499 28.0127 46.608 37.3257C45.783 39.3007 44.8564 39.2427 44.8564 40.8257C44.8564 42.4087 45.2205 45.8704 44.608 46.3257C43.3596 47.2537 41.108 45.8257 39.608 45.8257C30.108 51.3257 21.4833 47.7687 16.7763 43.7387C6.56834 35.0017 8.49334 18.9898 20.5133 12.6498C25.9283 9.79475 32.3374 9.63475 37.3964 12.2288Z" fill="#13AE72"/>
</svg>
